<svg width="22" height="14" viewBox="0 0 22 14" fill="none" xmlns="http://www.w3.org/2000/svg">
<path d="M7 13H15C16.5913 13 18.1174 12.3679 19.2426 11.2426C20.3679 10.1174 21 8.5913 21 7C21 5.4087 20.3679 3.88258 19.2426 2.75736C18.1174 1.63214 16.5913 1 15 1H7C5.4087 1 3.88258 1.63214 2.75736 2.75736C1.63214 3.88258 1 5.4087 1 7C1 8.5913 1.63214 10.1174 2.75736 11.2426C3.88258 12.3679 5.4087 13 7 13Z" stroke="black" stroke-width="0.5" stroke-linecap="round" stroke-linejoin="round"/>
<path d="M15 2C13.6739 2 12.4021 2.52678 11.4645 3.46447C10.5268 4.40215 10 5.67392 10 7C10 8.32608 10.5268 9.59785 11.4645 10.5355C12.4021 11.4732 13.6739 12 15 12C16.3261 12 17.5979 11.4732 18.5355 10.5355C19.4732 9.59785 20 8.32608 20 7C20 5.67392 19.4732 4.40215 18.5355 3.46447C17.5979 2.52678 16.3261 2 15 2Z" fill="#00A31A" stroke="#00A31A" stroke-width="0.5" stroke-linecap="round" stroke-linejoin="round"/>
</svg>
